<?xml version="1.0" standalone="no"?>
<!DOCTYPE svg PUBLIC "-//W3C//DTD SVG 20010904//EN"
 "http://www.w3.org/TR/2001/REC-SVG-20010904/DTD/svg10.dtd">
<svg version="1.0" xmlns="http://www.w3.org/2000/svg"
 width="599.000000pt" height="600.000000pt" viewBox="0 0 599.000000 600.000000"
 preserveAspectRatio="xMidYMid meet">

<g transform="translate(0.000000,600.000000) scale(0.100000,-0.100000)"
fill="#000000" stroke="none">
<path d="M2115 5778 c-28 -16 -35 -28 -35 -64 0 -42 19 -56 77 -54 90 3 91 3
102 -37 15 -54 14 -62 -14 -73 -25 -9 -42 -50 -30 -70 15 -24 55 -31 80 -14
32 21 75 11 75 -16 0 -17 -7 -20 -41 -20 -24 0 -38 -4 -34 -10 9 -15 63 -12
89 5 13 9 52 20 87 26 35 6 65 12 67 14 10 10 -9 35 -36 49 -26 13 -34 14 -58
2 -16 -8 -55 -18 -86 -21 l-58 -7 0 36 c0 50 31 68 126 74 69 4 75 6 72 26 -3
19 -11 21 -97 26 -93 5 -93 5 -72 24 11 11 21 24 21 31 0 17 -34 45 -54 45
-10 0 -20 9 -23 20 -5 18 -14 20 -72 20 -36 0 -75 -6 -86 -12z"/>
<path d="M4376 5575 c-8 -31 -25 -32 -60 -4 -51 40 -166 10 -166 -43 0 -26
-18 -58 -33 -58 -7 0 -20 14 -29 30 -26 46 -117 76 -156 52 -10 -7 -8 -14 8
-34 21 -27 26 -43 11 -34 -22 14 -72 -8 -92 -40 -24 -40 -35 -41 -83 -13 -40
23 -106 23 -163 -1 -29 -13 -34 -12 -75 16 -63 43 -68 43 -147 27 -63 -13 -75
-13 -88 -1 -25 26 -5 45 55 55 l57 9 -53 18 c-45 15 -58 16 -84 5 -17 -7 -34
-24 -40 -39 -5 -15 -27 -42 -49 -59 -33 -27 -39 -38 -39 -70 0 -21 -6 -44 -14
-50 -8 -7 -23 -44 -33 -82 -16 -63 -20 -69 -38 -63 -11 4 -48 9 -83 11 -56 4
-64 8 -77 32 -24 47 -37 53 -89 39 -41 -11 -48 -10 -73 8 -47 35 -90 54 -170
74 -56 15 -65 19 -33 15 25 -2 55 -8 67 -11 27 -8 42 18 23 41 -25 31 -140 30
-140 0 0 -8 -7 -18 -15 -22 -12 -7 -12 -13 -2 -33 10 -20 22 -26 64 -30 64 -7
75 -16 44 -39 l-24 -18 27 -7 c17 -4 26 -13 26 -26 0 -11 6 -19 13 -18 7 2 13
-9 15 -25 3 -20 -2 -29 -18 -35 -20 -8 -21 -9 -5 -22 28 -23 114 -17 180 14
35 16 53 20 45 11 -19 -23 -117 -55 -168 -55 -53 0 -76 12 -95 50 -7 14 -21
26 -32 28 -11 2 -27 11 -37 19 -12 11 -28 13 -65 8 -66 -10 -45 13 23 24 42 7
34 9 -56 10 -94 1 -109 -2 -148 -24 -41 -23 -45 -24 -68 -9 -16 11 -35 14 -57
10 -29 -5 -39 -2 -71 30 -37 36 -37 36 -104 29 -63 -6 -70 -4 -114 24 -46 29
-46 29 -52 8 -13 -48 -7 -55 86 -104 84 -44 89 -48 60 -51 -23 -2 -32 -8 -32
-21 0 -10 -9 -26 -21 -37 -18 -17 -23 -17 -46 -4 -15 8 -31 29 -36 45 -18 56
-35 67 -94 59 -49 -6 -55 -4 -88 25 -38 33 -90 42 -113 19 -9 -9 -16 -8 -30 5
-39 36 -112 15 -112 -32 0 -22 -8 -34 -34 -49 -22 -13 -35 -30 -39 -48 -2 -16
-10 -43 -17 -60 -11 -25 -10 -35 1 -59 20 -41 45 -44 52 -5 9 45 41 40 91 -15
23 -25 51 -45 62 -45 11 0 44 23 72 52 41 41 52 59 52 84 0 42 -17 54 -68 47
-38 -5 -42 -8 -42 -34 0 -15 -5 -31 -12 -35 -16 -10 -40 27 -33 54 3 12 1 22
-5 22 -5 0 -10 -5 -10 -11 0 -14 -66 -40 -84 -33 -9 3 -16 10 -16 14 0 16 53
50 76 50 25 0 33 25 12 33 -9 4 -8 6 2 6 8 1 20 -9 25 -21 9 -21 15 -23 81
-20 65 4 73 2 88 -19 9 -13 16 -33 16 -45 0 -21 1 -21 43 -7 51 18 110 4 128
-29 l12 -21 -28 21 c-15 12 -41 22 -57 22 -42 0 -95 -25 -108 -52 -17 -32 -61
-78 -75 -78 -7 0 -20 -9 -30 -20 -10 -12 -24 -19 -31 -16 -7 3 -14 -3 -17 -13
-3 -12 5 -24 23 -35 26 -15 29 -15 41 1 32 38 119 54 176 32 15 -6 70 -11 121
-12 l92 -2 0 35 c0 46 28 101 62 120 26 14 63 10 118 -14 11 -4 19 2 27 23 16
43 62 49 172 22 128 -31 163 -42 158 -47 -2 -3 -50 7 -105 21 -149 37 -212 32
-212 -16 0 -27 -13 -30 -67 -12 -67 21 -100 12 -119 -32 -17 -41 -19 -126 -3
-142 12 -12 4 -33 -11 -33 -5 0 -11 9 -15 19 -7 23 -54 41 -106 41 -53 0 -69
-9 -69 -36 0 -13 -4 -24 -10 -24 -5 0 -13 0 -17 0 -5 -1 -10 14 -13 32 -5 32
-7 33 -55 36 -65 3 -121 -27 -110 -61 18 -58 17 -66 -10 -93 -27 -26 -28 -27
-41 -9 -16 22 -18 69 -4 95 8 15 4 23 -20 40 -16 12 -45 24 -64 27 -28 4 -35
2 -41 -16 -3 -11 -1 -37 6 -56 10 -28 10 -38 1 -47 -10 -10 -14 -8 -18 10 -4
12 -9 22 -13 22 -14 0 -52 -62 -47 -75 6 -17 -10 -30 -19 -15 -3 5 -33 10 -66
10 -46 0 -59 -3 -59 -15 0 -20 -19 -19 -27 1 -3 9 0 20 8 26 10 7 8 8 -9 5
-12 -3 -20 -1 -16 4 6 11 44 12 44 2 0 -5 27 -8 60 -8 33 0 60 3 60 6 0 3 16
24 35 46 23 28 35 51 35 72 0 29 -2 30 -32 24 -46 -8 -53 -18 -34 -44 29 -42
22 -52 -33 -45 -32 4 -52 3 -56 -4 -12 -20 -56 -31 -71 -19 -22 18 1 37 51 45
100 15 95 60 -5 48 -71 -7 -104 -24 -108 -52 -3 -17 -10 -22 -33 -22 -42 0
-69 -17 -69 -43 0 -13 -5 -28 -11 -34 -19 -19 -2 -62 28 -69 15 -4 42 -18 61
-31 41 -27 71 -29 114 -7 40 21 112 14 138 -14 30 -32 173 -66 250 -58 43 4
60 2 50 -4 -29 -19 -161 -11 -259 15 -104 28 -143 26 -102 -4 13 -10 21 -23
17 -30 -10 -16 -46 -14 -52 3 -6 16 -61 29 -78 19 -6 -4 -18 -8 -26 -8 -9 0
-16 -11 -18 -27 -4 -35 -22 -37 -22 -4 0 14 -3 27 -7 29 -16 9 -54 -14 -72
-43 -12 -21 -21 -27 -24 -18 -3 7 -6 3 -6 -10 -1 -31 -27 -79 -48 -91 -14 -8
-16 -14 -7 -28 22 -36 88 -28 98 12 8 31 29 28 87 -11 l36 -25 57 22 c45 18
59 20 69 10 9 -10 7 -17 -12 -32 -18 -15 -39 -19 -98 -19 -63 0 -84 -5 -146
-34 -66 -31 -74 -38 -95 -85 -29 -65 -75 -100 -141 -108 -54 -6 -67 -24 -32
-43 26 -13 64 -13 112 2 22 6 42 8 47 4 9 -10 -35 -46 -57 -46 -9 0 -27 -9
-40 -19 -20 -15 -26 -31 -32 -87 -6 -57 -11 -72 -33 -89 -29 -23 -34 -50 -11
-59 28 -10 119 15 177 50 47 28 108 45 108 30 0 -2 -18 -42 -39 -89 -46 -100
-65 -115 -122 -97 -48 16 -65 5 -74 -51 -7 -42 -8 -42 -83 -39 -51 2 -85 -18
-107 -61 -21 -40 -12 -78 28 -116 39 -38 68 -53 99 -53 33 0 48 18 48 58 0 43
16 72 39 72 32 0 44 24 32 65 -19 69 27 98 84 53 19 -14 30 -18 32 -11 12 36
51 78 72 78 23 0 44 29 70 97 19 51 132 88 264 88 40 -1 89 -7 110 -14 l38
-14 19 38 c19 37 58 70 82 70 7 0 -1 -9 -19 -20 -34 -21 -56 -56 -68 -107 -7
-37 -25 -54 -25 -25 0 11 -6 24 -13 30 -38 32 -226 21 -314 -18 -43 -19 -43
-20 -37 -58 6 -42 -8 -64 -29 -43 -7 7 -16 2 -29 -19 -14 -24 -23 -29 -42 -24
-20 5 -27 -1 -48 -38 -14 -24 -30 -42 -36 -41 -7 2 -12 -10 -12 -30 0 -26 -6
-36 -25 -45 -14 -7 -31 -12 -38 -12 -25 0 -39 -19 -48 -63 -8 -43 -53 -127
-68 -127 -4 0 -24 -15 -44 -34 -43 -39 -49 -79 -15 -97 18 -10 24 -8 35 7 7
10 13 21 13 25 0 5 16 15 35 25 23 11 39 27 47 50 19 52 32 41 25 -22 -5 -46
-3 -54 8 -44 8 6 19 28 26 48 18 54 39 82 62 82 11 0 44 -22 73 -50 41 -39 60
-50 85 -50 24 0 30 -3 22 -11 -18 -18 -69 0 -116 42 -25 21 -52 39 -60 39 -14
0 -37 -39 -51 -86 -6 -21 -44 -44 -71 -44 -17 0 -24 -24 -27 -95 l-3 -50 -45
-3 c-43 -3 -47 -6 -72 -53 -16 -27 -28 -57 -28 -67 0 -27 32 -52 66 -52 l29 0
-25 20 c-14 11 -20 20 -15 20 6 0 30 -16 54 -35 24 -19 46 -33 49 -30 8 8 11
85 2 85 -4 0 -13 -7 -20 -15 -7 -8 -16 -15 -20 -15 -8 0 -34 80 -28 86 2 2 21
-2 41 -8 33 -10 39 -9 51 8 14 18 15 18 21 -9 4 -15 5 -43 2 -62 -4 -23 -1
-38 10 -47 15 -12 118 -16 130 -4 4 3 -3 16 -15 29 -24 25 -28 66 -12 98 23
43 54 15 66 -60 6 -37 9 -41 35 -41 l29 0 -7 60 c-5 52 -4 60 11 60 43 0 76
-86 44 -118 -9 -9 -9 -15 -1 -23 9 -9 20 1 45 37 42 63 102 124 119 124 8 -1
1 -8 -14 -16 -15 -8 -48 -46 -73 -85 -49 -76 -64 -88 -97 -70 -25 13 -72 10
-105 -8 -12 -6 -45 -15 -72 -18 -39 -4 -56 -1 -84 15 -35 21 -36 21 -36 2 0
-32 -20 -34 -51 -4 -25 24 -31 26 -39 14 -13 -20 -12 -26 2 -51 11 -17 10 -22
-4 -33 -23 -17 -23 -33 1 -46 37 -19 57 -12 76 30 33 74 69 77 69 6 0 -26 -8
-42 -32 -64 -38 -36 -40 -47 -10 -66 49 -30 128 -31 128 -1 0 14 -30 25 -71
25 -15 0 -32 6 -38 14 -10 12 -6 17 26 25 21 6 49 11 63 11 15 0 32 6 38 12
10 10 21 4 52 -28 34 -37 46 -42 98 -48 33 -4 62 -9 65 -12 3 -4 -3 -16 -14
-27 -11 -12 -22 -33 -25 -47 -10 -45 -13 -50 -32 -50 -30 0 -41 -19 -31 -53
14 -48 12 -53 -22 -67 -17 -7 -38 -24 -46 -37 -15 -22 -15 -26 0 -40 8 -9 39
-18 69 -21 42 -3 60 -11 88 -37 63 -59 112 -71 144 -36 17 19 17 20 -6 24 -13
2 -2 5 24 6 l48 1 -35 46 c-44 58 -46 92 -5 107 22 8 28 16 24 27 -20 45 -35
148 -27 190 l8 45 65 0 c36 0 84 -3 106 -6 l42 -7 0 42 c1 73 71 108 142 71
17 -9 30 -18 30 -21 0 -2 -13 2 -30 11 -16 8 -41 15 -55 15 -37 0 -75 -42 -75
-83 0 -28 5 -36 33 -48 37 -16 42 -43 9 -47 -15 -2 -31 5 -46 21 -19 20 -35
25 -105 31 -45 3 -87 4 -93 0 -15 -10 -4 -140 17 -191 17 -42 18 -43 64 -43
124 0 233 -79 202 -146 -16 -36 -52 -40 -113 -12 -48 23 -148 110 -148 130 0
15 -51 8 -57 -8 -8 -21 23 -79 64 -121 38 -37 43 -51 11 -29 -35 25 -68 21
-68 -8 0 -19 7 -26 31 -31 19 -4 34 -16 39 -31 8 -19 17 -24 45 -24 25 0 43
-7 59 -25 15 -16 38 -26 67 -30 81 -11 89 -15 89 -35 0 -11 -6 -20 -14 -20 -7
0 -25 -10 -40 -21 -23 -18 -27 -28 -24 -63 3 -41 3 -41 46 -44 32 -2 42 -7 42
-21 0 -31 22 -41 92 -41 83 0 131 18 150 57 21 44 41 35 61 -27 l17 -55 -27
-23 c-27 -22 -27 -23 -9 -37 11 -8 30 -15 43 -15 15 0 27 -8 32 -22 7 -18 17
-22 74 -25 41 -2 68 1 73 8 3 6 -11 30 -33 52 -45 49 -87 107 -81 113 3 2 22
10 44 17 29 11 39 20 39 35 0 12 4 22 8 22 4 0 11 0 16 0 16 0 30 -54 33 -126
3 -57 9 -79 30 -112 l27 -40 49 18 c26 10 77 24 112 30 80 14 117 36 159 95
42 58 64 70 102 55 24 -10 40 -9 101 10 131 40 227 99 268 165 12 20 26 33 31
29 14 -9 41 -65 54 -114 l12 -45 8 39 c11 55 -1 330 -18 397 -8 31 -30 86 -50
122 -22 40 -30 64 -22 60 12 -4 15 6 15 50 0 70 15 76 54 23 75 -103 95 -239
102 -681 3 -176 1 -417 -4 -535 l-8 -215 -27 57 c-31 67 -141 247 -197 323
-117 158 -241 278 -279 268 -11 -3 -33 2 -50 10 -29 15 -30 14 -55 -23 -45
-68 -110 -104 -241 -134 -77 -18 -111 -34 -260 -121 -55 -33 -161 -87 -236
-120 -163 -73 -219 -105 -251 -143 -21 -25 -27 -27 -58 -19 -19 5 -68 7 -109
5 -72 -3 -75 -5 -110 -44 -20 -23 -53 -53 -74 -69 -20 -15 -37 -31 -37 -35 0
-4 25 -12 55 -19 249 -56 495 -316 711 -751 77 -155 106 -230 53 -140 -145
250 -224 375 -296 472 -88 118 -212 251 -275 294 l-37 26 -83 -28 c-121 -40
-169 -62 -166 -76 1 -7 -19 -42 -46 -78 -27 -36 -58 -85 -70 -110 -12 -25 -34
-61 -49 -82 -16 -20 -31 -57 -36 -85 -5 -26 -27 -79 -50 -118 -22 -38 -44 -84
-47 -101 -4 -20 -21 -44 -48 -67 -42 -35 -76 -89 -76 -121 0 -15 69 -16 744
-16 431 0 747 4 750 9 3 5 13 66 21 137 8 70 17 129 20 132 12 12 4 -169 -10
-214 -8 -27 -15 -52 -15 -56 0 -5 34 -8 75 -8 l75 0 14 34 c19 46 34 121 47
241 10 96 28 162 29 105 0 -102 -21 -255 -44 -312 -14 -34 -24 -63 -23 -64 3
-3 605 -5 1006 -5 l233 1 -16 22 c-35 49 -66 124 -65 163 0 38 1 37 29 -38 16
-43 39 -93 50 -112 19 -30 27 -35 61 -35 21 0 39 2 39 3 0 2 -7 18 -16 36 -19
38 -32 121 -17 106 6 -5 20 -40 33 -78 l22 -67 649 0 649 0 -5 98 c-18 290
-37 564 -50 697 -29 290 -5 238 39 -87 31 -222 49 -482 44 -612 l-3 -96 76 0
77 0 11 78 c38 264 43 347 37 592 -7 257 -17 334 -57 413 -96 189 -389 365
-812 486 l-130 37 -1 254 c0 242 1 258 22 311 25 64 85 137 138 169 28 18 58
23 167 30 148 9 203 26 242 72 55 65 54 153 -1 255 -19 33 -38 78 -43 100 -7
30 -9 33 -10 12 -1 -15 15 -58 34 -95 69 -136 54 -249 -41 -295 -38 -18 -72
-23 -212 -30 -92 -4 -250 -13 -352 -19 -364 -23 -623 17 -760 118 -32 24 -33
24 -15 3 48 -55 165 -102 310 -127 121 -20 380 -28 545 -16 74 5 136 9 137 8
1 -1 -19 -17 -45 -37 -48 -35 -103 -115 -124 -179 -6 -20 -14 -161 -18 -330
-8 -324 -20 -418 -85 -669 -19 -74 -33 -136 -32 -138 10 -9 98 319 119 442 3
16 9 11 29 -25 63 -109 70 -147 73 -380 3 -245 -7 -333 -57 -480 -54 -157
-127 -246 -231 -280 -53 -17 -116 -9 -212 29 -219 85 -437 289 -603 565 l-52
86 11 528 c13 566 9 686 -31 868 l-20 94 46 59 c102 134 152 289 142 445 -13
199 -90 378 -259 604 l-72 95 66 61 c36 34 71 69 78 79 12 16 11 17 -14 7 -15
-5 -29 -10 -32 -10 -12 0 -1 23 27 55 35 40 34 42 -16 18 -44 -21 -53 -12 -26
25 29 41 27 45 -11 22 -53 -32 -52 -23 4 33 61 61 113 146 82 132 -11 -4 -32
-10 -49 -13 l-30 -4 33 34 c37 39 41 54 11 38 -11 -6 -25 -10 -31 -8 -6 2 25
27 69 55 83 53 121 102 110 145 -4 13 6 35 29 65 19 24 35 53 35 64 1 10 2 23
3 28 0 5 22 32 49 60 48 53 60 78 31 67 -65 -25 -114 -7 -114 40 0 21 -4 25
-17 19 -10 -3 -31 -8 -48 -11 -28 -4 -29 -4 -4 5 54 18 69 31 69 61 0 40 18
82 33 77 19 -6 20 -36 2 -77 -9 -20 -15 -50 -13 -66 3 -25 8 -29 39 -32 39 -3
51 6 66 53 14 43 28 32 28 -23 l0 -47 52 -3 c61 -3 90 9 95 40 4 29 25 34 33
8 3 -11 10 -18 15 -15 14 9 40 -37 40 -72 0 -17 4 -34 9 -38 6 -3 53 9 106 26
68 22 100 28 107 21 17 -17 0 -62 -28 -74 -13 -6 -23 -17 -20 -24 7 -19 -18
-47 -40 -42 -14 2 -19 12 -19 33 0 26 4 30 29 30 29 1 76 35 76 55 0 16 -35 9
-132 -26 -88 -31 -108 -25 -108 30 0 40 -14 61 -34 53 -21 -8 -20 -29 6 -89
l22 -50 63 5 63 5 0 -28 c0 -33 28 -60 61 -60 29 0 69 26 69 44 0 7 9 21 20
31 18 17 21 16 67 -18 60 -44 196 -183 251 -258 l42 -56 -28 -31 -29 -31 -12
22 c-9 18 -10 14 -4 -23 4 -25 7 -80 8 -122 0 -67 3 -80 24 -102 27 -29 136
-85 228 -117 81 -28 147 -94 137 -136 -11 -46 -33 -89 -70 -132 -44 -51 -33
-53 20 -3 34 31 37 33 23 10 -21 -34 -9 -37 21 -5 16 17 21 34 20 70 0 26 2
50 5 53 10 11 86 -76 113 -128 20 -38 28 -73 32 -126 4 -64 -9 -260 -24 -365
l-6 -37 -20 25 c-11 14 -24 25 -31 25 -6 0 -1 -9 11 -20 23 -22 28 -46 12 -70
-7 -12 -38 -14 -162 -14 -145 1 -184 6 -273 38 -20 8 -20 8 0 -8 52 -43 235
-67 381 -51 56 6 67 10 72 28 6 20 7 19 12 -8 5 -27 9 -30 40 -27 37 3 66 23
75 53 5 13 16 19 38 19 50 0 77 24 77 69 0 50 -11 58 -26 21 -16 -36 -38 -47
-60 -29 -21 17 -12 74 21 148 20 43 28 52 42 46 42 -18 78 -17 97 4 23 26 14
51 -19 51 -28 0 -32 12 -10 30 20 17 19 49 -2 56 -49 15 -70 54 -54 97 8 21 9
20 24 -13 8 -19 36 -60 62 -90 72 -83 77 -93 69 -137 -6 -34 -5 -37 8 -25 22
18 31 58 18 82 -8 16 -7 26 5 42 23 34 18 57 -15 76 -34 19 -37 32 -14 67 14
22 14 26 -12 64 -22 34 -24 44 -14 56 18 22 61 19 67 -5 7 -26 30 -26 38 0 8
24 -7 46 -36 55 -15 5 -17 10 -9 20 8 9 6 24 -5 53 -9 22 -15 46 -14 53 2 8
-3 25 -11 39 -8 14 -17 45 -20 70 l-5 45 -48 7 c-27 4 -51 8 -52 10 -2 2 -1
46 2 98 7 106 21 98 22 -12 l1 -68 35 0 c52 0 77 -29 69 -81 -5 -32 -2 -46 15
-69 11 -16 21 -44 21 -62 0 -37 12 -60 28 -56 6 2 17 -6 25 -17 27 -36 29 -7
3 38 -23 38 -26 55 -26 131 0 96 -16 150 -48 160 -26 9 -34 30 -22 62 13 32
13 30 -6 48 -8 9 -31 16 -50 16 -42 0 -44 14 -5 35 16 8 32 24 36 34 7 22 -14
70 -39 90 -12 10 -16 31 -16 75 l1 61 20 -37 c22 -43 48 -61 70 -47 22 14 29
11 29 -11 0 -39 83 -41 88 -2 4 28 -11 47 -61 79 -43 27 -45 41 -3 22 20 -10
29 -10 38 -1 7 7 22 12 35 12 21 0 23 -5 23 -48 0 -27 6 -57 14 -67 13 -18 14
-17 31 8 32 49 -3 153 -55 164 -23 4 -30 11 -30 28 0 45 -31 67 -101 74 -69 7
-70 7 -53 73 5 23 0 35 -30 69 -21 22 -35 46 -33 52 2 6 19 15 38 18 42 9 79
51 79 90 0 24 -4 29 -24 29 -51 0 -84 20 -100 61 -17 41 -22 42 -58 11 -10 -8
-22 -11 -30 -6 -7 5 -41 8 -76 9 l-63 0 3 -50 c3 -42 6 -50 24 -53 11 -2 28 6
39 18 10 11 26 20 36 20 18 0 54 -39 64 -70 3 -11 20 -20 40 -24 41 -8 50 -19
30 -36 -13 -11 -14 -10 -10 2 5 12 -3 17 -28 22 -26 5 -39 16 -56 46 -25 45
-36 48 -65 21 -12 -11 -33 -22 -48 -26 -34 -9 -46 12 -55 97 -5 51 -8 59 -17
44 -23 -40 -69 -86 -85 -86 -29 0 -48 31 -54 88 -3 29 -9 57 -12 62 -8 13 -38
-3 -89 -50 -23 -20 -52 -43 -66 -50 -30 -16 80 87 121 114 22 14 33 15 43 7
10 -9 15 -8 19 2 3 8 27 17 56 20 64 8 71 12 71 43 l0 24 37 -20 c52 -28 71
-26 78 8 3 15 10 43 15 63 6 20 10 54 10 75 l0 39 -24 -52 c-14 -28 -33 -56
-43 -61 -21 -11 -53 -1 -72 22 -32 38 -87 -3 -74 -54 7 -24 5 -24 53 0 54 28
63 25 15 -5 -49 -30 -75 -32 -82 -5 -7 25 -19 26 -33 0 -5 -10 -35 -36 -66
-56 -50 -34 -59 -36 -85 -27 -27 11 -30 9 -45 -18 -34 -66 -130 -91 -173 -45
-22 23 -25 23 -57 10 -44 -18 -145 -18 -191 1 -51 21 -37 27 20 8 65 -21 150
-10 184 23 14 14 26 24 27 22 1 -2 10 -15 19 -30 10 -15 28 -30 41 -34 52 -13
126 57 126 119 0 15 4 27 9 27 6 0 16 -12 23 -27 10 -21 20 -28 43 -28 24 0
33 6 44 33 16 35 31 42 31 15 0 -13 5 -12 26 8 17 16 21 25 12 28 -7 2 -31 21
-53 42 -43 41 -57 41 -79 -2 -14 -28 -48 -36 -65 -15 -17 20 0 51 39 71 39 20
51 43 37 74 -9 19 -9 25 1 29 6 2 12 7 12 12 0 5 5 21 10 36 l11 27 24 -23
c23 -21 45 -20 45 2 0 29 -44 98 -78 122 -35 24 -41 25 -100 16 -55 -9 -67 -8
-102 10 -49 25 -47 25 -54 -5z m157 -79 c-4 -18 -16 -28 -46 -38 -30 -9 -43
-20 -47 -37 -9 -39 -28 -36 -46 8 -9 23 -20 41 -24 41 -10 0 -30 -56 -30 -86
0 -13 -5 -26 -10 -29 -10 -6 -14 1 -24 48 -7 31 -34 47 -46 27 -4 -7 -8 -34
-8 -60 0 -26 -5 -57 -12 -70 -11 -20 -14 -21 -27 -8 -12 13 -13 25 -3 78 10
55 9 64 -6 81 -34 37 -43 18 -55 -111 l-7 -85 1 102 c2 82 5 106 19 120 17 16
19 16 47 -5 18 -13 32 -18 36 -12 9 15 51 12 65 -5 10 -12 15 -10 35 13 23 26
23 27 44 8 12 -11 21 -25 21 -32 0 -7 5 -16 12 -20 7 -4 8 -3 4 4 -8 13 27 38
66 47 14 4 28 15 31 26 7 28 15 23 10 -5z m-1164 -105 c14 -15 35 -44 45 -63
l19 -35 38 39 c46 49 68 47 89 -9 14 -38 17 -40 35 -27 10 8 25 14 33 14 8 0
27 11 44 25 16 14 37 25 45 25 25 0 53 -30 53 -57 0 -18 6 -23 28 -24 26 -1
27 -1 3 -8 -17 -5 -28 -18 -35 -45 -6 -20 -15 -36 -21 -34 -13 4 -11 24 6 65
23 56 -15 102 -61 73 -8 -5 -17 -31 -20 -60 -6 -60 -24 -71 -28 -17 -4 42 -9
45 -44 17 -20 -15 -27 -32 -32 -80 -9 -74 -14 -90 -31 -90 -28 0 -34 68 -10
114 17 32 20 93 5 116 -7 12 -12 11 -30 -5 -12 -11 -29 -33 -37 -48 -12 -25
-12 -34 1 -75 24 -76 28 -115 14 -135 -30 -40 -78 19 -78 96 0 24 5 58 11 75
9 25 7 38 -11 74 -48 94 -91 112 -134 56 -29 -39 -62 -133 -72 -206 -3 -29
-10 -52 -15 -52 -19 0 22 172 57 241 38 76 86 90 133 40z m-197 -292 c19 -10
11 -15 -66 -44 -47 -18 -123 -54 -168 -81 -111 -66 -275 -228 -356 -351 -105
-161 -195 -369 -217 -501 -6 -39 -9 -43 -33 -40 -24 3 -27 7 -24 38 15 148
121 399 233 550 78 106 218 247 329 331 73 54 97 67 170 86 101 26 105 26 132
12z m-268 -57 c-12 -9 -56 -43 -97 -75 -102 -79 -262 -246 -324 -337 -99 -147
-160 -294 -192 -465 l-18 -90 -57 -9 c-31 -4 -59 -7 -61 -5 -9 9 29 182 60
276 67 200 153 343 281 470 135 133 301 231 424 252 3 0 -5 -7 -16 -17z m273
-59 c-2 -16 -4 -3 -4 27 0 30 2 43 4 28 2 -16 2 -40 0 -55z m588 43 c9 -19 39
-56 66 -81 55 -52 70 -50 89 9 l10 31 -5 -34 c-11 -74 -38 -78 -104 -16 l-49
46 -7 -46 c-8 -55 -26 -65 -65 -36 -38 27 -50 27 -50 -3 0 -32 -25 -56 -59
-56 -15 0 -61 8 -102 19 -142 35 -127 36 -135 -6 -16 -92 -46 -108 -149 -81
-42 11 -47 10 -66 -9 -12 -11 -28 -47 -35 -79 l-14 -59 5 55 c3 32 12 65 24
80 17 23 25 25 100 25 93 0 111 12 111 71 0 54 19 61 118 39 48 -10 106 -20
130 -23 41 -4 42 -3 42 26 0 47 23 59 68 36 20 -10 41 -20 46 -22 4 -3 7 30 4
72 -2 42 0 76 4 76 4 0 14 -16 23 -34z m-1403 -116 c68 -33 88 -36 121 -19 21
10 21 10 3 -5 -28 -23 -67 -20 -132 9 -31 14 -66 25 -79 25 -27 0 -51 -25 -61
-64 -7 -28 -6 -29 22 -23 l29 6 -27 -12 c-35 -14 -39 -60 -7 -77 30 -17 7 -41
-32 -33 -33 6 -110 -19 -130 -44 -7 -8 -12 -33 -10 -55 2 -37 1 -40 -18 -35
-18 4 -21 1 -21 -26 l0 -30 23 20 c24 23 108 66 147 77 14 4 -4 -12 -40 -35
-36 -23 -77 -53 -92 -67 -31 -28 -27 -43 21 -96 23 -26 24 -27 4 -17 -12 6
-29 21 -37 32 l-14 21 -39 -28 -38 -29 27 33 c24 29 28 42 28 100 -1 37 1 78
2 92 3 24 0 25 -46 25 -41 0 -52 -4 -69 -27 -23 -30 -33 -106 -23 -171 6 -41
9 -44 37 -45 38 -1 59 -18 59 -46 0 -53 -61 -64 -88 -16 -9 16 -22 30 -28 30
-34 0 -54 -81 -34 -141 17 -50 6 -61 -24 -24 -21 26 -30 30 -76 30 -64 0 -82
-19 -78 -85 3 -44 3 -45 48 -53 25 -5 51 -14 58 -19 20 -17 14 -48 -13 -60
-32 -14 -71 2 -87 37 -9 19 -19 25 -44 25 -56 0 -82 -18 -93 -64 -9 -40 -9
-40 -10 -8 -1 43 35 79 86 88 l38 6 -3 53 c-3 48 -1 57 23 81 24 24 32 26 86
22 53 -4 59 -2 54 13 -11 32 14 99 43 117 26 17 27 19 24 104 -4 138 32 186
133 175 48 -5 55 -3 60 14 8 24 71 86 106 105 19 9 30 26 38 59 23 90 67 105
173 55z m668 -23 c0 -8 -9 -22 -21 -33 -18 -16 -20 -27 -16 -68 4 -45 3 -48
-10 -30 -10 13 -13 35 -10 67 4 46 4 47 -25 47 -19 0 -45 -13 -72 -35 -61 -50
-74 -43 -18 9 51 47 65 53 130 55 29 1 42 -3 42 -12z m890 -182 c13 -14 30
-25 37 -25 15 0 33 40 33 75 0 13 5 36 10 50 9 23 13 25 26 14 9 -7 29 -39 45
-71 16 -32 33 -58 38 -58 10 0 25 41 36 97 4 18 11 35 16 38 12 8 29 -37 30
-78 0 -18 4 -41 8 -52 7 -16 10 -13 22 23 14 43 33 52 35 17 3 -49 5 -55 22
-55 31 0 88 47 107 89 20 45 30 45 30 -1 0 -26 6 -33 45 -49 25 -10 39 -18 33
-18 -20 -1 -93 30 -93 40 0 5 -16 -8 -35 -30 -46 -51 -90 -70 -112 -48 -15 14
-18 14 -34 -6 -19 -22 -19 -22 -34 -3 -8 11 -15 28 -15 38 0 25 -7 23 -35 -9
-22 -27 -24 -27 -42 -10 -11 9 -30 40 -43 67 -13 28 -27 50 -30 50 -4 0 -10
-21 -13 -46 -3 -28 -13 -54 -25 -67 -20 -19 -22 -19 -47 -3 -32 21 -65 89 -64
131 1 23 4 17 14 -23 7 -29 23 -64 35 -77z m928 41 c59 4 140 8 180 9 95 0
112 -16 112 -110 0 -44 5 -66 16 -75 8 -8 27 -33 41 -57 23 -40 28 -43 68 -43
29 0 50 -7 66 -21 l24 -20 -28 17 c-19 12 -39 15 -67 10 -42 -7 -41 -8 -93 63
-51 70 -57 83 -57 137 0 77 -3 78 -188 70 -170 -7 -191 -3 -220 44 -14 22 -13
22 12 -4 l28 -29 106 9z m-1980 -68 c19 -19 14 -45 -14 -67 l-25 -20 57 -17
c74 -21 169 -15 221 16 26 15 33 17 23 5 -30 -36 -73 -49 -160 -50 -63 0 -97
5 -127 19 -38 17 -45 17 -85 4 -41 -14 -43 -17 -43 -54 l0 -39 -60 -3 c-65 -3
-82 -12 -88 -45 -4 -19 -4 -19 -6 4 -1 32 16 49 50 49 14 0 41 3 59 6 29 6 31
9 26 39 -7 37 1 46 56 66 31 11 37 16 32 35 -13 50 49 87 84 52z m2140 -43
c17 -14 33 -39 37 -55 3 -16 12 -34 20 -40 7 -6 32 -40 55 -74 33 -52 50 -67
89 -84 33 -13 50 -27 54 -43 6 -23 6 -23 -16 3 -12 14 -35 29 -51 33 -16 3
-42 20 -57 36 -26 28 -28 28 -34 9 -10 -32 -23 -23 -38 27 -11 38 -15 43 -19
25 -8 -28 -33 -28 -52 0 -23 32 -21 75 4 83 28 9 25 29 -11 59 -38 33 -54 33
-75 0 -16 -24 -16 -27 0 -55 16 -28 17 -32 1 -55 -20 -31 -35 -23 -35 21 0 44
-26 59 -92 53 -37 -4 -48 -2 -44 7 5 13 -28 48 -54 58 -12 4 -11 6 3 6 10 1
30 -11 44 -25 21 -21 38 -27 85 -30 43 -3 58 -1 58 9 0 7 7 23 16 35 21 31 74
30 112 -3z m-627 -55 c22 -12 25 -47 7 -85 -16 -37 0 -45 90 -45 49 0 74 -4
76 -12 3 -7 7 -25 10 -40 4 -19 13 -28 25 -28 25 0 67 51 76 90 9 39 23 47 33
18 31 -81 39 -118 26 -107 -8 6 -19 29 -25 52 l-10 40 -23 -49 c-22 -47 -55
-74 -92 -74 -8 0 -22 17 -31 38 -8 20 -17 39 -20 42 -2 3 -36 7 -75 10 -86 6
-98 18 -78 79 18 56 9 63 -83 59 -74 -3 -93 6 -32 15 58 8 107 7 126 -3z
m-2686 -34 c-34 -15 -85 -70 -85 -91 0 -8 5 -17 10 -20 9 -5 -82 -75 -98 -75
-10 0 -108 -78 -153 -123 -33 -33 -48 -57 -53 -84 -3 -21 -10 -45 -16 -53 -8
-13 -11 -13 -27 2 -16 17 -16 19 0 54 18 37 14 78 -6 71 -15 -5 -45 -110 -46
-162 -1 -47 12 -65 49 -65 33 0 66 -23 85 -60 13 -26 18 -28 41 -20 14 6 37 9
52 9 20 -1 22 -2 7 -6 -61 -13 -74 -24 -77 -66 -2 -32 -8 -43 -22 -45 -17 -4
-18 1 -13 47 5 45 3 54 -20 81 -51 61 -117 23 -131 -75 -8 -55 -32 -75 -32
-26 0 62 -36 48 -76 -31 -30 -59 -30 -72 -1 -65 21 6 21 6 3 -9 -48 -35 -45
42 4 119 22 35 36 47 54 47 39 0 66 91 32 112 -6 4 -37 8 -68 8 -51 0 -57 -2
-60 -22 -2 -16 -11 -24 -28 -27 -28 -3 -40 -17 -40 -47 0 -11 -7 -29 -15 -40
-15 -18 -15 -16 -10 24 8 48 0 52 -41 20 l-29 -22 24 27 c14 15 32 27 41 27
25 0 30 10 17 32 -10 16 -9 22 6 33 25 18 107 28 165 20 l48 -6 12 70 c21 125
59 176 96 128 l18 -25 72 60 c39 33 84 67 99 76 15 9 26 23 25 32 -5 24 -58
23 -168 -5 -56 -14 -105 -24 -107 -21 -9 8 191 67 240 71 27 2 56 10 66 19 10
9 25 16 34 16 9 0 23 12 32 28 20 34 73 72 100 72 15 -1 13 -4 -10 -14z m1536
-29 c-14 -37 -26 -42 -140 -47 -124 -6 -141 -19 -141 -102 0 -42 -5 -54 -30
-80 -29 -29 -34 -30 -88 -24 -182 21 -168 22 -180 -14 -9 -25 -8 -39 3 -67 8
-19 12 -39 9 -45 -3 -5 -32 -22 -65 -38 -71 -34 -69 -20 3 16 39 20 48 29 42
42 -15 34 -16 107 -1 126 16 22 49 25 164 11 54 -6 76 -5 88 5 15 13 30 57 40
123 9 54 51 71 149 62 83 -8 121 3 138 40 14 32 22 26 9 -8z m-463 -93 c-4 -3
-45 -14 -92 -24 -113 -25 -140 -40 -160 -90 -18 -45 -21 -112 -6 -139 12 -23
-3 -77 -31 -111 l-20 -25 14 30 c22 45 30 92 18 100 -6 3 -11 37 -11 74 0 115
49 162 185 180 91 11 110 12 103 5z m1663 -109 c20 -37 29 -43 103 -68 44 -15
88 -28 96 -28 32 0 86 14 105 27 11 8 31 14 44 14 38 0 111 -40 123 -66 7 -15
25 -28 48 -34 46 -12 64 -32 58 -65 -4 -18 0 -26 14 -30 10 -4 26 -21 35 -38
l16 -32 -31 33 c-35 38 -36 38 -69 12 -33 -26 -45 -25 -41 2 2 14 12 24 28 28
46 11 35 63 -15 73 -22 4 -25 1 -25 -27 0 -18 -7 -41 -15 -52 -15 -19 -15 -19
-30 0 -19 26 -19 80 0 96 14 12 14 15 -1 31 -22 24 -79 42 -109 35 -20 -5 -24
-13 -27 -49 -4 -56 -32 -59 -36 -4 -2 20 -6 37 -10 37 -11 -1 -58 -29 -48 -30
14 0 -15 -30 -30 -30 -8 0 -14 11 -14 26 0 20 -8 29 -42 43 -24 10 -55 21 -70
25 -24 5 -27 3 -25 -20 3 -36 -18 -41 -39 -9 -16 24 -16 28 -1 42 14 15 14 19
0 47 -9 17 -31 54 -51 81 l-34 50 35 -40 c20 -22 46 -58 58 -80z m-1218 67
c-13 -18 -44 -35 -91 -52 -83 -30 -95 -39 -131 -111 -33 -67 -59 -82 -130 -73
l-53 6 6 -49 c5 -38 3 -55 -13 -80 -25 -40 -56 -56 -162 -83 -165 -42 -215
-87 -205 -180 2 -25 7 -54 10 -65 4 -11 0 -6 -8 10 -8 17 -15 54 -16 84 0 50
3 57 40 92 33 32 61 45 158 75 150 46 174 68 170 152 l-3 57 78 5 c84 5 81 3
122 82 29 56 52 72 120 89 68 16 102 35 110 60 4 11 9 18 13 15 3 -4 -3 -19
-15 -34z m1687 17 c-20 -37 -8 -44 81 -44 l84 0 6 -60 c4 -33 10 -76 14 -96 4
-20 3 -39 -2 -42 -7 -5 -25 73 -36 163 -2 12 -16 14 -73 12 -94 -5 -123 22
-81 76 15 19 19 14 7 -9z m-2820 -220 c-14 -11 -42 -29 -62 -39 -30 -16 -40
-29 -51 -68 -13 -44 -17 -48 -59 -58 -84 -21 -98 -36 -78 -75 6 -11 8 -24 5
-29 -8 -14 -45 6 -45 24 0 19 -35 26 -71 16 -48 -14 -59 -28 -59 -76 0 -36 -3
-44 -18 -44 -10 0 -24 -6 -31 -12 -11 -11 -13 -10 -9 2 3 8 15 17 27 18 21 3
23 8 18 39 -4 20 -2 45 4 55 13 24 67 48 108 48 16 0 33 5 37 11 10 17 86 49
116 49 21 0 28 6 33 30 7 34 41 80 59 80 6 0 27 11 46 25 42 29 65 33 30 4z
m945 -92 c-8 -18 -35 -47 -59 -64 -24 -17 -63 -59 -86 -93 -44 -64 -69 -80
-127 -80 -22 0 -41 -7 -49 -17 -7 -10 -14 -13 -14 -6 0 21 31 43 63 44 51 1
64 10 109 79 29 43 58 73 88 90 26 15 53 41 65 63 24 45 33 32 10 -16z m-754
-159 c0 -68 4 -147 8 -176 4 -29 5 -54 2 -56 -3 -2 -29 -7 -57 -11 -44 -6 -52
-4 -59 12 -4 10 -10 89 -13 177 -5 179 -7 176 71 176 l47 0 1 -122z m75 -18
c1 -170 10 -260 35 -351 11 -40 18 -78 15 -86 -3 -8 1 -16 10 -20 8 -3 26 -28
40 -55 31 -62 42 -58 15 5 l-20 47 23 6 c33 8 131 -12 185 -38 70 -33 169
-139 218 -233 78 -150 96 -209 97 -315 1 -85 -2 -101 -27 -152 -30 -61 -65
-96 -131 -131 -34 -18 -58 -21 -146 -22 -121 0 -167 16 -242 86 l-43 40 41
-31 c49 -37 132 -70 177 -70 38 0 89 29 112 63 74 114 14 358 -127 512 -33 36
-64 65 -70 65 -6 0 14 -24 43 -54 107 -107 168 -245 169 -378 0 -42 -5 -89
-11 -105 -10 -28 -57 -83 -70 -83 -4 0 6 13 21 30 98 105 40 366 -117 531 -29
31 -50 59 -46 62 3 4 -15 16 -42 28 -71 32 -155 24 -197 -18 -17 -17 -37 -52
-44 -79 l-14 -49 5 45 c3 25 18 71 35 103 28 55 28 59 14 99 -8 22 -14 44 -14
48 0 4 23 12 50 17 43 9 52 8 61 -6 9 -14 10 -14 5 2 -4 11 1 20 11 24 14 6
14 7 -3 14 -16 5 -24 26 -37 95 -21 111 -21 124 1 125 14 0 13 2 -4 11 -24 11
-34 76 -34 219 0 110 8 141 34 137 20 -3 21 -8 22 -138z m2184 73 c12 -27 33
-81 46 -120 l22 -73 -59 0 c-65 0 -109 21 -164 79 -23 25 -29 39 -27 68 5 61
43 91 118 92 38 1 41 -1 64 -46z m380 -15 c72 -12 89 -30 99 -102 4 -31 11
-59 14 -62 4 -4 30 -11 58 -15 72 -11 79 -20 77 -93 l-2 -61 -3 52 c-2 28 -10
56 -17 62 -7 6 -35 14 -62 17 -62 7 -82 25 -89 83 -10 76 -18 87 -67 95 -49 8
-139 49 -159 73 -9 10 5 6 40 -11 29 -15 79 -32 111 -38z m-243 -106 c11 -15
32 -28 46 -30 24 -3 27 0 27 25 0 36 16 53 51 53 40 0 55 -24 35 -54 -8 -14
-25 -27 -36 -31 -25 -8 -25 -21 0 -62 28 -47 62 -45 87 4 20 40 43 55 43 28 0
-10 -10 -35 -22 -56 -20 -36 -20 -39 -4 -63 20 -31 37 -33 61 -6 21 23 35 18
35 -15 0 -18 6 -24 27 -27 53 -6 89 -98 64 -163 -6 -13 -8 -1 -7 35 1 72 -21
110 -65 110 -22 0 -32 6 -36 19 -4 16 -8 18 -23 9 -27 -17 -67 -2 -82 32 -9
22 -20 30 -39 30 -30 0 -52 22 -74 73 -9 23 -22 37 -33 37 -49 0 -102 81 -101
155 1 38 1 37 13 -18 7 -32 22 -70 33 -85z m-1591 35 c-11 -45 -45 -76 -102
-93 -39 -11 -58 -23 -69 -42 -12 -24 -14 -25 -15 -6 0 33 21 52 85 77 48 18
64 30 80 59 21 40 31 42 21 5z m-1375 -95 c-79 -90 -125 -160 -146 -221 -15
-46 -15 -52 0 -81 18 -36 17 -111 -3 -118 -14 -4 -42 56 -42 93 0 32 -16 32
-63 0 -40 -28 -51 -57 -17 -48 15 4 20 0 20 -16 0 -11 -4 -21 -9 -21 -14 0
-31 -60 -34 -120 l-2 -55 -55 3 c-65 4 -135 -20 -152 -52 -7 -11 -15 -39 -19
-61 l-6 -40 -2 38 c-2 80 54 128 158 133 l53 2 4 51 c2 27 8 61 13 75 7 18 6
28 -5 36 -7 7 -14 19 -14 27 0 24 75 92 109 99 17 4 31 12 31 19 0 38 77 159
151 238 44 48 83 87 86 87 3 0 -22 -31 -56 -68z m929 1 c-21 -48 -69 -106
-104 -125 -11 -6 0 15 26 48 24 33 55 76 67 97 31 51 38 40 11 -20z m325 -151
c129 -61 240 -182 334 -362 66 -127 84 -198 84 -335 0 -94 -4 -122 -27 -190
-31 -90 -63 -150 -114 -213 l-34 -43 21 -72 c44 -150 52 -250 52 -617 -1 -361
-15 -867 -31 -1130 -6 -85 -10 -273 -10 -417 0 -169 -4 -263 -10 -263 -15 0
-12 331 6 668 11 201 17 485 18 877 1 514 -1 593 -17 694 -20 128 -43 197 -80
240 -14 17 -27 36 -29 42 -3 9 -15 8 -49 -4 -56 -20 -153 -32 -144 -17 3 5 11
10 18 10 6 0 23 12 38 26 26 25 28 25 59 9 39 -20 50 -14 15 9 -32 21 -32 39
3 65 l27 20 48 -52 c26 -29 43 -41 37 -28 -10 19 -7 33 14 80 96 214 64 467
-86 696 -96 147 -238 259 -352 281 l-40 7 28 23 c41 36 140 34 221 -4z m-643
-84 c27 -115 28 -113 -47 -120 -38 -3 -39 -2 -52 42 -7 25 -19 71 -27 102
l-13 57 41 10 c75 17 71 20 98 -91z m-425 57 c3 -9 3 -19 -1 -22 -8 -9 -56 14
-56 27 0 16 50 12 57 -5z m-542 -29 c-44 -19 -63 -46 -67 -91 l-3 -40 -66 -7
c-79 -7 -106 -20 -119 -54 -14 -36 -13 -51 2 -36 19 19 38 14 38 -10 0 -27
-27 -58 -52 -58 -15 0 -18 -8 -18 -42 0 -32 -3 -39 -10 -28 -13 21 -12 64 2
78 7 7 11 32 9 56 -1 25 3 54 9 66 16 30 70 50 135 50 55 0 55 0 55 31 0 38
56 99 92 99 21 -1 21 -2 -7 -14z m1352 -58 c196 -73 383 -341 424 -606 10 -65
10 -98 0 -167 -7 -47 -17 -85 -21 -85 -5 0 -15 -2 -22 -5 -12 -5 -14 12 -10
104 5 124 -11 218 -58 333 -38 94 -90 167 -185 264 -91 92 -172 138 -261 150
l-55 6 28 19 c33 21 79 17 160 -13z m2212 -35 c-15 -40 -4 -76 21 -68 24 8 26
-1 5 -21 -23 -24 -18 -114 7 -114 5 0 18 10 27 22 19 23 47 20 57 -7 8 -20
-13 -45 -37 -45 -15 0 -19 -7 -19 -35 0 -19 5 -35 11 -35 16 0 6 -64 -11 -68
-12 -2 -16 11 -18 64 -3 57 -7 70 -27 86 -29 22 -40 73 -26 110 6 17 7 29 1
33 -13 8 -13 61 0 86 16 28 21 23 9 -8z m-2894 -34 c-4 -5 4 -27 18 -47 44
-67 43 -75 -13 -122 -48 -40 -56 -60 -24 -60 8 0 28 9 43 21 31 23 66 22 66
-1 0 -8 -18 -24 -40 -35 -41 -22 -69 -59 -81 -110 -7 -30 -7 -30 14 -11 18 15
24 16 37 6 22 -18 18 -39 -9 -51 -32 -15 -39 -56 -15 -90 20 -29 25 -59 9 -59
-5 0 -7 7 -3 16 3 8 -3 25 -15 37 -11 12 -22 38 -25 57 -3 19 -9 47 -12 62 -5
17 -1 48 9 79 17 49 16 50 -5 68 -29 24 -21 43 36 83 25 17 45 36 45 40 0 5
-11 31 -25 59 -22 43 -26 69 -9 69 3 0 2 -5 -1 -11z m3165 -43 c0 -14 -4 -28
-10 -31 -6 -4 -10 7 -10 24 0 17 5 31 10 31 6 0 10 -11 10 -24z m50 -121 c0
-14 -4 -25 -8 -25 -5 0 -19 11 -32 25 l-23 25 31 0 c27 0 32 -4 32 -25z
m-2803 -106 c60 -29 137 -117 180 -207 30 -62 37 -91 41 -154 5 -92 0 -117
-34 -157 -111 -132 -349 97 -380 367 -16 144 69 211 193 151z m-881 -52 c-51
-28 -86 -94 -89 -165 -1 -35 -6 -52 -15 -52 -14 0 -42 -58 -42 -89 0 -11 9
-21 21 -24 13 -4 20 -12 17 -24 -4 -24 -35 -29 -57 -9 -17 15 -20 15 -40 -1
-15 -12 -24 -34 -28 -63 -3 -25 -15 -58 -27 -75 -12 -17 -24 -54 -27 -85 l-6
-55 -1 55 c-2 39 4 64 18 88 11 18 20 46 20 62 0 45 17 79 48 97 22 12 32 29
41 65 7 26 21 58 31 71 10 12 23 43 30 67 7 25 20 61 31 81 18 37 71 79 99 79
8 0 -3 -10 -24 -23z m266 -23 c-57 -25 -62 -78 -14 -142 26 -36 22 -48 -18
-54 -21 -3 -25 -8 -24 -38 0 -19 2 -48 5 -64 3 -25 0 -30 -22 -36 -15 -4 -33
-4 -40 1 -10 6 -6 9 13 9 36 0 39 9 23 64 -16 53 -9 80 24 91 18 5 18 6 -1 43
-28 55 -13 112 37 132 35 15 51 9 17 -6z m298 -305 c9 -5 -13 -9 -57 -9 -99 0
-123 -21 -160 -138 -31 -101 -42 -93 -18 14 19 87 51 131 105 144 37 8 105 3
130 -11z m-37 -131 c-50 -24 -10 -98 52 -98 46 0 44 -15 -4 -39 -35 -18 -51
-37 -51 -61 0 -4 16 -27 35 -50 20 -24 33 -45 29 -49 -3 -3 -37 -6 -74 -7 -90
0 -114 -19 -107 -82 6 -57 15 -65 56 -51 24 8 36 8 44 0 18 -18 -20 -51 -59
-51 l-34 0 7 -60 c5 -55 4 -60 -14 -60 -10 0 -24 5 -31 12 -9 9 -12 9 -12 1 0
-7 5 -15 10 -18 6 -3 17 -20 26 -36 15 -29 14 -32 -16 -77 -17 -25 -29 -53
-28 -61 2 -10 28 -22 67 -32 68 -18 85 -30 96 -69 6 -22 4 -21 -14 7 -19 30
-67 53 -113 53 -10 0 -27 9 -38 20 -19 19 -19 22 -5 57 9 21 23 45 31 54 14
16 12 23 -25 78 -23 33 -41 62 -41 65 0 11 35 5 54 -9 11 -8 22 -15 25 -15 10
0 4 114 -8 158 -25 91 17 142 117 142 l54 0 -26 31 c-34 40 -33 71 3 102 l29
24 -34 27 c-24 19 -34 35 -34 54 0 31 16 52 40 51 10 0 7 -4 -7 -11z m177
-159 c-16 -28 8 -53 74 -78 28 -10 50 -22 49 -25 -1 -4 -22 -21 -45 -39 -55
-42 -88 -106 -88 -172 0 -69 11 -84 40 -55 22 22 26 23 189 17 181 -6 244 -19
249 -54 9 -60 -280 -91 -401 -44 -47 18 -50 15 -45 -45 7 -81 15 -86 147 -85
61 0 111 -3 111 -8 0 -15 -29 -21 -99 -21 -54 0 -78 -6 -122 -27 -68 -35 -73
-54 -20 -84 23 -12 43 -30 45 -38 2 -9 7 -28 10 -43 5 -20 13 -28 29 -29 18
-1 19 -2 3 -6 -24 -6 -37 7 -45 49 -5 25 -17 38 -50 57 -23 13 -45 30 -48 38
-7 18 30 58 70 74 31 13 31 13 8 19 -42 10 -63 50 -65 126 -1 38 -7 79 -14 91
-7 12 -12 39 -12 60 0 70 19 114 74 168 l52 52 -46 21 c-54 25 -75 54 -60 82
6 11 13 20 16 20 2 0 0 -9 -6 -21z m-436 -38 c-12 -24 -13 -44 -5 -109 14
-109 7 -142 -45 -202 -25 -29 -44 -62 -44 -75 0 -13 16 -57 36 -98 28 -60 34
-82 29 -110 -8 -39 -20 -48 -50 -36 -17 7 -16 8 8 8 24 1 27 5 27 37 0 23 -15
63 -42 113 -49 91 -48 108 17 181 l45 51 0 115 c0 108 9 154 30 154 4 0 2 -13
-6 -29z m676 -96 c10 -11 20 -38 22 -60 3 -38 5 -40 33 -37 17 1 40 0 53 -3
41 -10 22 -20 -38 -20 -68 0 -80 9 -80 64 0 19 -7 42 -16 52 -12 13 -14 26 -8
46 l8 28 4 -25 c2 -14 12 -34 22 -45z m-829 28 c12 -15 12 -16 -3 -10 -12 4
-21 0 -28 -12 -8 -15 -70 -48 -70 -37 0 9 67 76 76 76 6 0 18 -8 25 -17z
m1149 -79 c87 -7 98 -17 50 -49 -37 -24 -47 -57 -31 -100 16 -45 15 -51 -19
-100 -43 -63 -43 -87 -2 -96 50 -10 55 -21 27 -59 -13 -18 -22 -38 -18 -43 3
-6 1 -7 -6 -3 -9 6 -7 17 9 42 25 44 25 44 -6 44 -35 0 -64 17 -64 38 0 9 14
43 31 76 26 49 29 62 20 83 -19 42 -13 82 17 113 l29 29 -51 6 c-51 7 -116 29
-116 39 0 3 11 1 25 -4 14 -5 61 -13 105 -16z m-86 -799 c72 -61 126 -137 221
-307 76 -138 162 -334 151 -345 -2 -2 -20 36 -40 84 -20 48 -68 140 -105 203
-37 63 -85 146 -106 185 -23 41 -73 106 -124 159 -86 90 -86 95 3 21z m-97
-32 c39 -108 52 -163 58 -243 7 -84 -8 -79 -19 7 -4 29 -20 96 -35 150 -51
173 -53 222 -4 86z m-188 -89 c1 -41 -36 -180 -45 -172 -2 3 0 38 6 79 5 41
13 106 17 144 6 68 7 69 14 30 4 -22 8 -59 8 -81z m2012 -79 c74 -211 84 -319
54 -611 -25 -245 -72 -378 -168 -475 -85 -86 -174 -119 -327 -119 -52 0 -124
7 -159 15 -161 38 -349 182 -456 350 -31 48 -99 195 -90 195 2 0 20 -34 39
-76 69 -148 174 -268 321 -363 90 -59 171 -87 281 -96 219 -18 374 62 458 238
50 104 75 240 96 512 11 144 -1 239 -52 395 -53 164 -52 158 -39 139 6 -10 25
-56 42 -104z m-2701 -279 c53 -35 47 -42 -10 -14 -40 20 -59 22 -185 21 -77
-1 -135 0 -130 2 30 13 130 23 202 21 70 -2 87 -6 123 -30z m3529 -421 c1
-175 -10 -244 -66 -414 -56 -170 -70 -173 -19 -4 46 152 55 214 63 463 8 224
20 199 22 -45z m-2206 -47 c-45 -159 -143 -327 -231 -396 -46 -37 -143 -94
-149 -89 -2 3 19 19 46 36 62 37 117 91 177 173 84 115 83 129 -2 19 -76 -98
-224 -210 -314 -236 -14 -4 7 15 45 41 130 88 281 257 380 424 53 92 65 110
69 110 2 0 -8 -37 -21 -82z m-1733 -204 c-96 -97 -166 -139 -273 -164 -50 -11
-92 -19 -94 -17 -4 5 62 29 123 46 46 12 160 85 244 155 30 25 57 46 60 46 2
0 -25 -30 -60 -66z m2044 -342 c-9 -14 -24 121 -24 212 0 204 15 194 20 -14 3
-107 5 -196 4 -198z m1893 221 c-7 -75 -42 -212 -58 -228 -13 -12 -7 25 27
179 13 60 24 110 24 112 0 2 3 4 6 4 4 0 4 -30 1 -67z m-1749 -78 c11 -66 23
-129 27 -140 7 -20 7 -20 -9 0 -25 30 -56 165 -56 245 0 65 18 16 38 -105z
m433 -141 c40 -20 31 -29 -14 -15 -40 13 -87 56 -87 78 0 10 12 5 35 -16 19
-17 49 -38 66 -47z"/>
<path d="M2622 3288 c36 -35 73 -75 83 -90 24 -39 40 -35 18 3 -20 35 -140
149 -157 149 -5 0 19 -28 56 -62z"/>
<path d="M2315 3320 c-14 -6 -5 -9 36 -9 83 -1 161 -44 247 -136 110 -118 172
-256 172 -384 0 -84 -12 -125 -51 -175 l-32 -41 36 34 c88 83 91 253 6 427
-70 142 -185 247 -306 279 -64 17 -79 17 -108 5z"/>
<path d="M2306 3021 c21 -39 201 -227 185 -196 -11 24 -146 179 -181 210 l-23
20 19 -34z"/>
<path d="M2406 3008 c43 -53 81 -91 108 -110 l28 -21 -13 24 c-16 30 -116 129
-131 129 -6 0 -3 -10 8 -22z"/>
<path d="M2247 5583 c-4 -3 -7 -11 -7 -17 0 -6 5 -5 12 2 6 6 9 14 7 17 -3 3
-9 2 -12 -2z"/>
<path d="M2229 5417 c5 -25 20 -38 78 -71 39 -23 82 -49 96 -59 13 -10 47 -20
74 -24 40 -4 51 -2 56 11 5 11 1 16 -14 16 -32 0 -55 16 -78 55 -19 32 -24 35
-68 36 -67 1 -96 11 -108 36 -5 12 -17 24 -26 26 -13 4 -15 -1 -10 -26z"/>
<path d="M4791 5024 c-19 -8 -41 -12 -48 -10 -12 5 -12 -10 3 -81 8 -43 36
-26 97 61 22 32 35 33 47 4 5 -13 9 -17 9 -10 3 49 -43 65 -108 36z"/>
<path d="M3665 4589 c-11 -4 -37 -8 -58 -8 -23 -1 -36 -5 -32 -11 9 -15 78
-12 101 4 23 17 17 27 -11 15z"/>
<path d="M1148 4559 c-27 -15 -22 -29 11 -29 31 0 49 25 25 34 -19 7 -15 8
-36 -5z"/>
<path d="M919 4525 c-53 -35 -62 -71 -34 -125 20 -39 35 -38 35 3 0 33 15 66
25 55 3 -3 19 7 35 23 19 19 39 29 59 29 35 0 39 7 14 26 -29 22 -94 17 -134
-11z"/>
<path d="M3974 4144 c5 -14 1 -15 -26 -11 -35 6 -228 -35 -291 -61 -20 -8 -55
-34 -77 -58 -37 -41 -100 -151 -114 -204 -7 -22 -4 -21 20 10 64 80 139 151
183 172 42 21 60 23 201 23 85 0 175 -2 200 -5 40 -4 45 -2 48 17 2 14 -11 36
-38 65 -24 25 -38 35 -34 23 6 -16 -1 -13 -29 13 -42 36 -52 40 -43 16z"/>
<path d="M3902 3790 c4 -12 -19 -21 -113 -44 -65 -16 -116 -33 -113 -37 2 -4
-4 -13 -13 -19 -14 -9 -10 -10 22 -6 22 3 114 12 205 21 196 19 199 20 225 40
19 15 18 16 -18 10 -20 -3 -43 -3 -50 2 -14 8 -32 13 -64 16 -12 2 -25 6 -29
10 -12 12 -26 8 -18 -5 4 -7 -3 -4 -16 7 -16 14 -22 16 -18 5z"/>
<path d="M5360 3566 c0 -8 5 -18 10 -21 6 -3 10 1 10 9 0 8 -4 18 -10 21 -5 3
-10 -1 -10 -9z"/>
<path d="M4547 3523 c-3 -5 6 -16 19 -26 24 -18 24 -18 24 8 0 18 -5 25 -19
25 -11 0 -22 -3 -24 -7z"/>
<path d="M4271 3493 c-1 -44 7 -62 40 -78 36 -19 55 -19 104 4 l40 19 -63 -6
c-71 -6 -96 8 -111 62 l-9 31 -1 -32z"/>
<path d="M4459 3489 c-19 -16 -20 -18 -4 -10 34 17 51 31 39 31 -7 0 -22 -9
-35 -21z"/>
<path d="M4537 3329 c-51 -12 -89 -32 -170 -91 -37 -27 -97 -65 -132 -84 -67
-37 -83 -50 -41 -34 46 17 121 58 210 114 49 31 112 63 140 71 61 19 158 11
179 -14 45 -52 16 -79 -66 -61 -47 9 -65 7 -149 -15 -113 -30 -393 -159 -382
-176 6 -11 46 -30 91 -43 18 -6 20 -4 16 13 -7 28 22 38 46 17 24 -22 29 -20
24 7 -3 14 2 29 12 37 15 12 21 12 46 -2 28 -16 29 -16 29 2 0 35 12 50 39 50
15 0 32 -5 38 -11 8 -8 13 -3 18 19 8 40 31 47 59 19 l23 -23 12 33 c16 42 46
44 68 4 l17 -29 19 24 c25 32 33 30 56 -13 l19 -38 -2 93 c-3 85 -5 94 -27
110 -40 28 -122 37 -192 21z"/>
<path d="M4574 3058 c-3 -4 -22 -8 -42 -8 -26 0 -41 -6 -50 -20 -8 -14 -23
-20 -46 -20 -19 0 -38 -5 -41 -11 -4 -6 -17 -14 -29 -19 -36 -15 59 -11 149 5
44 8 115 14 158 15 l77 0 0 30 c0 24 -4 30 -22 30 -13 1 -51 2 -86 4 -35 1
-65 -1 -68 -6z"/>
<path d="M3622 2010 c8 -14 31 -52 51 -86 122 -203 186 -470 175 -728 -4 -94
-3 -112 5 -81 18 69 14 329 -6 425 -32 149 -137 378 -213 465 -22 25 -24 26
-12 5z"/>
<path d="M3390 1455 c0 -15 74 -116 125 -170 67 -72 48 -36 -42 82 -60 78 -83
102 -83 88z"/>
<path d="M1205 947 c-8 -20 -15 -53 -15 -73 0 -30 3 -35 18 -29 9 4 60 18 112
31 52 13 100 26 105 28 16 6 -119 65 -164 72 -40 6 -41 5 -56 -29z"/>
<path d="M4298 954 c-110 -26 -198 -88 -239 -166 -27 -53 -24 -57 9 -12 16 21
45 53 65 71 41 36 144 87 197 98 19 4 42 11 50 16 23 13 -14 10 -82 -7z"/>
<path d="M3400 871 c0 -6 15 -11 33 -11 104 -1 258 -58 313 -116 42 -44 45
-27 3 20 -41 47 -136 93 -207 101 -31 3 -76 8 -99 11 -27 3 -43 1 -43 -5z"/>
</g>
</svg>
